<svg xmlns="http://www.w3.org/2000/svg" width="90" height="90" viewBox="0 0 90 90" fill="none">
    <path
        d="M74.9809 11.9531C74.9809 11.9531 74.3066 11.5077 74.1094 11.4469C73.8235 11.359 72.9281 11.25 72.9281 11.25C62.1548 11.1231 51.8969 15.8541 45 24.1312C38.103 15.8541 27.8451 11.1231 17.0719 11.25C17.0719 11.25 16.1789 11.1867 15.8906 11.25C15.6892 11.2939 15.0187 11.7562 15.0187 11.7562L6.58124 19.1812C5.91995 19.7585 5.56628 20.6117 5.62499 21.4875V66.0375C5.62499 67.5907 6.88429 68.85 8.43749 68.85C31.3875 68.85 43.1051 78.063 43.2281 78.1312C43.6384 78.3587 44.4069 78.7757 45.4619 78.7753C46.1461 78.7749 46.9181 78.2845 47.3526 77.9934C50.4032 75.9522 61.799 69.2996 81.3094 69.2996C82.8629 69.2996 84.1219 68.0403 84.1219 66.4871V21.4871C84.1212 20.6792 83.7728 19.9111 83.166 19.3778L74.9809 11.9531ZM70.3125 16.875V55.9125C61.643 56.623 53.5823 60.653 47.8125 67.1625V29.7281C52.9896 22.2687 61.2576 17.5458 70.3125 16.875ZM19.6875 16.875C28.7335 17.4832 37.0125 22.1709 42.1875 29.6156V67.1625C36.4173 60.653 28.357 56.623 19.6875 55.9125V16.875ZM11.25 22.7531L14.0625 20.2781V58.6128C14.0625 60.166 15.3218 61.4253 16.875 61.4253C23.1128 61.3779 29.1814 63.4507 34.0875 67.3031C26.7268 64.7968 19.0237 63.4405 11.25 63.2812V22.7531ZM78.75 63.2812C70.9762 63.4405 63.2731 64.7968 55.9125 67.3028C60.8185 63.4503 66.8876 61.3775 73.125 61.425C74.6782 61.425 75.9375 60.1657 75.9375 58.6125V20.2781L78.75 22.7531V63.2812Z"
        fill="#1B8271" />
</svg>