<svg xmlns="http://www.w3.org/2000/svg" width="32" height="32" viewBox="0 0 32 32" fill="none">
    <path
        d="M25.333 6.6665H23.9997V3.99984C23.9997 3.64622 23.8592 3.30708 23.6092 3.05703C23.3591 2.80698 23.02 2.6665 22.6664 2.6665C22.3128 2.6665 21.9736 2.80698 21.7236 3.05703C21.4735 3.30708 21.333 3.64622 21.333 3.99984V6.6665H10.6664V3.99984C10.6664 3.64622 10.5259 3.30708 10.2759 3.05703C10.0258 2.80698 9.68667 2.6665 9.33305 2.6665C8.97943 2.6665 8.64029 2.80698 8.39024 3.05703C8.14019 3.30708 7.99972 3.64622 7.99972 3.99984V6.6665H6.66638C5.60552 6.6665 4.5881 7.08793 3.83795 7.83808C3.08781 8.58822 2.66638 9.60564 2.66638 10.6665V11.9998H29.333V10.6665C29.333 9.60564 28.9116 8.58822 28.1615 7.83808C27.4113 7.08793 26.3939 6.6665 25.333 6.6665Z"
        fill="#717579" />
    <path
        d="M2.66638 25.3332C2.66638 26.394 3.08781 27.4115 3.83795 28.1616C4.5881 28.9117 5.60552 29.3332 6.66638 29.3332H25.333C26.3939 29.3332 27.4113 28.9117 28.1615 28.1616C28.9116 27.4115 29.333 26.394 29.333 25.3332V14.6665H2.66638V25.3332Z"
        fill="#717579" />
</svg>