<svg xmlns="http://www.w3.org/2000/svg" width="90" height="90" viewBox="0 0 90 90" fill="none">
    <g clip-path="url(#clip0_435_98)">
        <path
            d="M65.5298 33.0901V22.5C65.5312 18.7012 63.1109 15.4174 59.6603 14.1977V2.93484C59.6603 1.31414 58.3463 0 56.7255 0C55.1046 0 53.7906 1.31396 53.7906 2.93484V13.6956H36.1819V2.93484C36.1819 1.31396 34.868 0 33.2473 0C31.6266 0 30.3124 1.31396 30.3124 2.93484V14.1994C26.8029 15.4399 24.442 18.7587 24.4429 22.5V33.1203C12.5982 46.3001 6.28277 63.5572 6.84949 81.2893C6.88869 82.5115 7.67408 83.5752 8.83107 83.9718C32.2733 92.0092 57.7258 92.0097 81.1696 83.9718C82.3262 83.5752 83.1122 82.5112 83.151 81.289C83.7153 63.5606 77.4068 46.2899 65.5298 33.0901ZM30.3124 22.5C30.3138 21.1569 31.2036 20.0607 32.3734 19.6966C32.8588 19.546 33.2896 19.5652 33.2473 19.5652C33.8374 19.5652 53.5908 19.5652 56.7255 19.5652C58.3521 19.5667 59.6594 20.8789 59.6603 22.5V31.3044C59.3425 31.3044 30.6301 31.3044 30.3126 31.3044V22.5H30.3124ZM12.6844 79.0662C12.6923 63.6205 18.3855 48.7044 28.69 37.174H31.7471C26.318 50.9024 24.139 67.104 24.4754 82.118C20.5042 81.3312 16.5672 80.3136 12.6844 79.0662ZM59.6259 83.1118C49.9176 84.4687 40.0976 84.4708 30.3746 83.1118C29.9037 68.0068 32.1054 51.0228 38.0981 37.1739H51.9022C57.8304 50.8741 60.1043 67.7663 59.6259 83.1118ZM65.5249 82.118C65.8613 67.1055 63.6794 50.8955 58.2532 37.174H61.3104V37.1739C71.6148 48.7041 77.308 63.6203 77.3156 79.0664C73.4329 80.3139 69.496 81.3313 65.5249 82.118Z"
            fill="#1B8271" />
    </g>
    <defs>
        <clipPath id="clip0_435_98">
            <rect width="90" height="90" fill="white" />
        </clipPath>
    </defs>
</svg>