<svg xmlns="http://www.w3.org/2000/svg" width="90" height="90" viewBox="0 0 90 90" fill="none">
    <path
        d="M52.5 7.5H37.5C34.5163 7.5 31.6548 8.68526 29.545 10.795C27.4353 12.9048 26.25 15.7663 26.25 18.75V22.5H18.75C15.7663 22.5 12.9048 23.6853 10.795 25.7951C8.68526 27.9048 7.5 30.7663 7.5 33.75V71.25C7.5 74.2337 8.68526 77.0952 10.795 79.205C12.9048 81.3147 15.7663 82.5 18.75 82.5H71.25C74.2337 82.5 77.0952 81.3147 79.205 79.205C81.3147 77.0952 82.5 74.2337 82.5 71.25V33.75C82.5 30.7663 81.3147 27.9048 79.205 25.7951C77.0952 23.6853 74.2337 22.5 71.25 22.5H63.75V18.75C63.75 15.7663 62.5647 12.9048 60.455 10.795C58.3452 8.68526 55.4837 7.5 52.5 7.5ZM33.75 18.75C33.75 17.7554 34.1451 16.8016 34.8484 16.0984C35.5516 15.3951 36.5054 15 37.5 15H52.5C53.4946 15 54.4484 15.3951 55.1516 16.0984C55.8549 16.8016 56.25 17.7554 56.25 18.75V22.5H33.75V18.75ZM75 33.75V71.25C75 72.2446 74.6049 73.1984 73.9017 73.9017C73.1984 74.6049 72.2446 75 71.25 75H18.75C17.7554 75 16.8016 74.6049 16.0984 73.9017C15.3951 73.1984 15 72.2446 15 71.25V33.75C15 32.7554 15.3951 31.8016 16.0984 31.0984C16.8016 30.3951 17.7554 30 18.75 30H71.25C72.2446 30 73.1984 30.3951 73.9017 31.0984C74.6049 31.8016 75 32.7554 75 33.75Z"
        fill="#1B8271" />
    <path d="M48.75 41.25H41.25V48.75H33.75V56.25H41.25V63.75H48.75V56.25H56.25V48.75H48.75V41.25Z" fill="#1B8271" />
</svg>