<svg xmlns="http://www.w3.org/2000/svg" width="32" height="32" viewBox="0 0 32 32" fill="none">
    <g clip-path="url(#clip0_438_2819)">
        <path
            d="M16.0001 6.99512C11.8407 6.99512 8.46863 8.29145 8.46863 9.89067V13.4052C8.46863 15.0044 11.8407 16.3007 16.0001 16.3007C20.1595 16.3007 23.5314 15.0044 23.5314 13.4052V9.89067C23.5314 8.29145 20.1595 6.99512 16.0001 6.99512Z"
            fill="#717579" />
        <path
            d="M16.0001 17.5139C12.5381 17.5139 9.62193 16.6157 8.74139 15.3926C8.56388 15.6388 8.46863 15.8985 8.46863 16.1666V19.6811C8.46863 21.2804 11.8407 22.5767 16.0001 22.5767C20.1595 22.5767 23.5314 21.2804 23.5314 19.6811V16.1666C23.5314 15.8985 23.4363 15.6389 23.2588 15.3926C22.3782 16.6158 19.4621 17.5139 16.0001 17.5139Z"
            fill="#717579" />
        <path
            d="M16.0001 23.7865C12.5381 23.7865 9.62193 22.8883 8.74139 21.665C8.56388 21.9114 8.46863 22.171 8.46863 22.4391V25.9538C8.46863 27.5528 11.8407 28.8494 16.0001 28.8494C20.1595 28.8494 23.5314 27.5528 23.5314 25.9538V22.4391C23.5314 22.171 23.4363 21.9115 23.2588 21.665C22.3782 22.8884 19.4621 23.7865 16.0001 23.7865Z"
            fill="#717579" />
        <path
            d="M24.9149 3.15088C21.5013 3.15088 18.6517 4.07898 17.9802 5.31484C19.3662 5.45351 20.6516 5.73694 21.7161 6.14626C24.6197 7.26246 25.0531 8.98307 25.0531 9.90944V11.9045C28.9022 11.8762 32.0001 10.6678 32.0001 9.18116V5.87486C32 4.37037 28.8278 3.15088 24.9149 3.15088Z"
            fill="#717579" />
        <path
            d="M25.053 13.0454V17.8086C28.9022 17.7803 32 16.5719 32 15.0854V11.7789C32 11.5267 31.9105 11.2826 31.7435 11.0508C30.9267 12.1852 28.249 13.022 25.053 13.0454Z"
            fill="#717579" />
        <path
            d="M25.053 18.9458V23.709C28.9022 23.6807 32 22.4724 32 20.9858V17.6793C32 17.4271 31.9105 17.183 31.7435 16.9512C30.9267 18.0856 28.249 18.9223 25.053 18.9458Z"
            fill="#717579" />
        <path
            d="M14.0208 5.31484C13.3493 4.07905 10.4997 3.15088 7.08608 3.15088C3.17311 3.15088 0.000976562 4.37037 0.000976562 5.87486V9.18116C0.000976562 10.6678 3.09875 11.8762 6.94778 11.9045V9.90944C6.94778 8.98307 7.3813 7.26254 10.2849 6.14626C11.3495 5.73694 12.6347 5.45351 14.0208 5.31484Z"
            fill="#717579" />
        <path
            d="M0.256457 11.0508C0.0894671 11.2826 0 11.5267 0 11.7789V15.0854C0 16.5719 3.09777 17.7803 6.94681 17.8086V13.0454C3.75093 13.0219 1.07308 12.1852 0.256457 11.0508Z"
            fill="#717579" />
        <path
            d="M0.256457 16.9512C0.0894671 17.183 0 17.4271 0 17.6793V20.9858C0 22.4725 3.09777 23.6807 6.94681 23.7091V18.9459C3.75093 18.9222 1.07308 18.0855 0.256457 16.9512Z"
            fill="#717579" />
    </g>
    <defs>
        <clipPath id="clip0_438_2819">
            <rect width="32" height="32" fill="white" />
        </clipPath>
    </defs>
</svg>