<svg xmlns="http://www.w3.org/2000/svg" width="90" height="90" viewBox="0 0 90 90" fill="none">
    <path
        d="M22.4944 74.9306H14.9948V67.4268H22.4944V74.9306ZM14.9948 14.9414H22.4944V22.4409H14.9948V14.9414ZM67.4803 14.9414H74.9841V22.4409H67.4803V14.9414ZM7.49109 67.4268V74.9306C7.49109 79.0172 10.9027 82.4301 14.9948 82.4301H22.4944C26.5852 82.4301 29.9981 79.0172 29.9981 74.9306H48.7406C50.7952 74.9306 52.4911 73.2346 52.4911 71.1759C52.4911 69.1214 50.7952 67.4268 48.7406 67.4268H29.9981C29.9981 63.3347 26.5852 59.9259 22.4944 59.9259V29.9447C26.5852 29.9447 29.9981 26.5331 29.9981 22.4409H59.9794C59.9794 26.5331 63.3881 29.9447 67.4803 29.9447V48.6872C67.4803 50.7431 69.1748 52.4376 71.2294 52.4376C73.2881 52.4376 74.9841 50.7431 74.9841 48.6872V29.9447C79.0706 29.9447 82.4836 26.5331 82.4836 22.4409V14.9414C82.4836 10.8506 79.0706 7.43762 74.9841 7.43762H67.4803C63.3881 7.43762 59.9794 10.8506 59.9794 14.9414H29.9981C29.9981 10.8506 26.5852 7.43762 22.4944 7.43762H14.9948C10.9027 7.43762 7.49109 10.8506 7.49109 14.9414V22.4409C7.49109 26.5331 10.9027 29.9447 14.9948 29.9447V59.9259C10.9027 59.9259 7.49109 63.3347 7.49109 67.4268Z"
        fill="#1B8271" />
    <path
        d="M68.0611 66.3469C67.3439 66.7097 66.7617 67.2919 66.3989 68.0077L65.6241 69.5559L62.9691 62.9156L69.6094 65.5706L68.0611 66.3469ZM57.6239 52.7006C57.1542 52.5206 56.6578 52.4334 56.1572 52.4489C54.1336 52.4981 52.4939 54.1744 52.4939 56.1994C52.4939 56.6676 52.5783 57.1359 52.7512 57.5719L61.7498 80.0789C62.3194 81.4964 63.6989 82.4302 65.2289 82.4302C66.6506 82.4302 67.9528 81.6244 68.5842 80.3531L72.5442 72.4922L80.4052 68.5322C81.6778 67.8994 82.4836 66.5972 82.4836 65.1769C82.4836 63.6469 81.5498 62.2659 80.1323 61.6964L57.6239 52.7006Z"
        fill="#1B8271" />
</svg>