<svg xmlns="http://www.w3.org/2000/svg" width="90" height="90" viewBox="0 0 90 90" fill="none">
    <path
        d="M26.25 37.5H18.75C17.7554 37.5 16.8016 37.1049 16.0984 36.4016C15.3951 35.6984 15 34.7446 15 33.75C15 32.7554 15.3951 31.8016 16.0984 31.0983C16.8016 30.3951 17.7554 30 18.75 30H26.25C27.2446 30 28.1984 30.3951 28.9017 31.0983C29.6049 31.8016 30 32.7554 30 33.75C30 34.7446 29.6049 35.6984 28.9017 36.4016C28.1984 37.1049 27.2446 37.5 26.25 37.5Z"
        fill="#1B8271" />
    <path
        d="M82.7625 22.0087C81.7089 21.4459 80.5225 21.179 79.3293 21.2364C78.1362 21.2939 76.9809 21.6735 75.9862 22.335L63.75 30.4912V26.3212C63.747 23.8169 62.7508 21.4159 60.98 19.645C59.2091 17.8742 56.8081 16.878 54.3037 16.875H13.1962C10.6919 16.878 8.2909 17.8742 6.52003 19.645C4.74916 21.4159 3.75298 23.8169 3.75 26.3212V63.6788C3.75298 66.1831 4.74916 68.5841 6.52003 70.355C8.2909 72.1258 10.6919 73.122 13.1962 73.125H54.3037C56.8081 73.122 59.2091 72.1258 60.98 70.355C62.7508 68.5841 63.747 66.1831 63.75 63.6788V59.5088L75.9862 67.665C76.9807 68.3271 78.1361 68.7071 79.3294 68.7644C80.5228 68.8217 81.7093 68.5543 82.7626 67.9905C83.8159 67.4267 84.6965 66.5877 85.3107 65.5629C85.9248 64.5381 86.2495 63.366 86.25 62.1713V27.8287C86.2492 26.634 85.9244 25.4618 85.3103 24.4369C84.6962 23.4121 83.8157 22.5729 82.7625 22.0087ZM56.25 63.6788C56.25 64.1949 56.0449 64.69 55.6799 65.055C55.315 65.4199 54.8199 65.625 54.3037 65.625H13.1962C12.6801 65.625 12.185 65.4199 11.82 65.055C11.455 64.69 11.25 64.1949 11.25 63.6788V26.3212C11.25 25.8051 11.455 25.31 11.82 24.945C12.185 24.58 12.6801 24.375 13.1962 24.375H54.3037C54.8199 24.375 55.315 24.58 55.6799 24.945C56.0449 25.31 56.25 25.8051 56.25 26.3212V63.6788ZM78.75 60.495L63.75 50.4938V39.5062L78.75 29.505V60.495Z"
        fill="#1B8271" />
</svg>