<svg xmlns="http://www.w3.org/2000/svg" width="90" height="90" viewBox="0 0 90 90" fill="none">
    <path
        d="M76.9048 11.2466C69.7676 4.07054 60.2691 0.0767919 50.159 0.00103022C39.2349 -0.0777198 28.7568 4.64587 21.4291 12.97C21.2159 13.2122 21.0025 13.4606 20.7898 13.7107H5.53711C3.59543 13.7107 2.02148 15.2847 2.02148 17.2264V38.6717C2.02148 40.3822 3.24352 41.8059 4.86176 42.1209C4.40121 43.3069 3.95508 44.4976 3.52986 45.6868C2.72338 47.9431 3.06545 50.4594 4.44551 52.4181C5.82557 54.377 8.08031 55.5465 10.4769 55.5465H11.8652V62.1383C11.8652 69.8438 18.1343 76.1129 25.8398 76.1129H29.2676C31.2061 76.1129 32.7832 77.69 32.7832 79.6285V86.484C32.7832 88.4257 34.3572 89.9996 36.2988 89.9996H75.4981C77.4397 89.9996 79.0137 88.4257 79.0137 86.484V75.6156C79.0137 73.8643 79.1137 72.0949 79.3108 70.3568C79.5298 68.4276 78.1432 66.6861 76.214 66.4673C74.2834 66.2479 72.5434 67.635 72.3245 69.5642C72.0974 71.5644 71.9824 73.6005 71.9824 75.6156V82.9684H39.8145V79.6285C39.8145 73.813 35.0831 69.0817 29.2676 69.0817H25.8398C22.0113 69.0817 18.8965 65.9668 18.8965 62.1383V52.0309C18.8965 50.0892 17.3225 48.5153 15.3809 48.5153H10.4767C10.4275 48.5153 10.2969 48.5153 10.1936 48.3687C10.0904 48.2224 10.1343 48.0997 10.1508 48.0537C10.8522 46.0918 11.6104 44.1255 12.4073 42.1871H33.0822C34.3441 46.0596 37.987 48.8668 42.2752 48.8668H78.8806C78.5199 49.7897 78.1149 50.7048 77.6605 51.6101C76.7893 53.3454 77.4898 55.4583 79.2251 56.3293C79.7312 56.5834 80.2693 56.7037 80.7996 56.7037C82.087 56.7037 83.3273 55.9937 83.9443 54.7646C86.6178 49.439 87.9752 43.8247 87.9783 38.0779C87.9841 27.961 84.0514 18.432 76.9048 11.2466ZM9.05273 35.1561V20.742H36.8262C40.8001 20.742 44.0332 23.9751 44.0332 27.949C44.0332 31.9229 40.8001 35.1561 36.8262 35.1561H9.05273ZM57.9199 41.8357H42.2754C41.8409 41.8357 41.4316 41.7282 41.0699 41.5413C44.6003 40.4367 47.5425 37.9911 49.3008 34.8045H57.9199V41.8357ZM80.6985 41.8357H64.9512V31.2889C64.9512 29.3472 63.3772 27.7732 61.4356 27.7732H51.0601C50.9651 20.0032 44.6184 13.7107 36.8262 13.7107H30.8225C36.2514 9.41482 42.9036 7.03105 49.834 7.03105C66.8494 7.15884 80.9568 21.0851 80.9473 38.0742C80.9466 39.3356 80.8615 40.59 80.6985 41.8357Z"
        fill="#1B8271" />
</svg>